<svg width="15" height="16" viewBox="0 0 15 16" fill="none" xmlns="http://www.w3.org/2000/svg">
<path d="M7.5 12.1667C7.73611 12.1667 7.93417 12.0867 8.09417 11.9267C8.25417 11.7667 8.33389 11.5689 8.33333 11.3333C8.33278 11.0978 8.25278 10.9 8.09333 10.74C7.93389 10.58 7.73611 10.5 7.5 10.5C7.26389 10.5 7.06611 10.58 6.90667 10.74C6.74722 10.9 6.66722 11.0978 6.66667 11.3333C6.66611 11.5689 6.74611 11.7669 6.90667 11.9275C7.06722 12.0881 7.265 12.1678 7.5 12.1667ZM6.66667 8.83333H8.33333V3.83333H6.66667V8.83333ZM4.375 15.5L0 11.125V4.875L4.375 0.5H10.625L15 4.875V11.125L10.625 15.5H4.375ZM5.08333 13.8333H9.91667L13.3333 10.4167V5.58333L9.91667 2.16667H5.08333L1.66667 5.58333V10.4167L5.08333 13.8333Z" fill="#F93C65"/>
</svg>
