<svg width="17" height="16" viewBox="0 0 17 16" fill="none" xmlns="http://www.w3.org/2000/svg">
<path d="M10.208 12.25L11.8332 15.5L13.4832 13.808L16 13.8332L13.6584 9.18323V9.17523M6.792 12.25L5.1668 15.5L3.5168 13.808L1 13.8332L3.3416 9.18323V9.17523" stroke="#FF6934" stroke-width="0.8" stroke-linecap="round" stroke-linejoin="round"/>
<path d="M14.5668 6.33322C14.5668 6.96682 14.0084 7.50002 13.8248 8.06682C13.6416 8.63322 13.7668 9.40842 13.4084 9.90002C13.05 10.3916 12.2832 10.5 11.8332 10.8668C11.3832 11.2336 11 11.9168 10.4168 12.1084C9.83323 12.3 9.17483 11.9332 8.54163 11.9332C7.90843 11.9332 7.23363 12.2916 6.66683 12.1084C6.10003 11.9248 5.74163 11.2164 5.25003 10.8668C4.75803 10.5168 3.99163 10.3916 3.63323 9.90002C3.27483 9.40802 3.40843 8.65002 3.21683 8.06682C3.02483 7.48322 2.43323 6.96682 2.43323 6.33322C2.43323 5.69962 2.99163 5.16682 3.17483 4.60002C3.35803 4.03322 3.23323 3.25842 3.59163 2.76682C3.95003 2.27522 4.71683 2.16682 5.20843 1.80002C5.70003 1.43322 6.00003 0.750018 6.62483 0.558418C7.25003 0.366418 7.86683 0.733218 8.50003 0.733218C9.13323 0.733218 9.80803 0.374818 10.3752 0.558418C10.9416 0.741618 11.3 1.45002 11.8332 1.80002C12.3664 2.15002 13.0916 2.27482 13.45 2.76682C13.8084 3.25882 13.6752 4.01682 13.8668 4.60002C14.0584 5.18322 14.5668 5.70002 14.5668 6.33322ZM8.50003 3.83322C7.83693 3.83322 7.201 4.09663 6.73212 4.56551C6.26324 5.03439 5.99983 5.67032 5.99983 6.33342C5.99983 6.99651 6.26324 7.63245 6.73212 8.10133C7.201 8.5702 7.83693 8.83362 8.50003 8.83362C9.16307 8.83362 9.79895 8.57023 10.2678 8.10138C10.7366 7.63254 11 6.99666 11 6.33362C11 5.67058 10.7366 5.03469 10.2678 4.56585C9.79895 4.09701 9.16307 3.83322 8.50003 3.83322Z" stroke="#FF6934" stroke-width="0.8" stroke-linecap="round" stroke-linejoin="round"/>
</svg>
