<svg width="3" height="14" viewBox="0 0 3 14" fill="none" xmlns="http://www.w3.org/2000/svg">
<path fill-rule="evenodd" clip-rule="evenodd" d="M1.83675 0.167969C2.14705 0.167969 2.44465 0.270842 2.66406 0.453958C2.88348 0.637074 3.00675 0.885432 3.00675 1.1444V9.93225C3.00675 10.1912 2.88348 10.4396 2.66406 10.6227C2.44465 10.8058 2.14705 10.9087 1.83675 10.9087C1.52644 10.9087 1.22885 10.8058 1.00943 10.6227C0.790016 10.4396 0.666748 10.1912 0.666748 9.93225V1.1444C0.666748 0.885432 0.790016 0.637074 1.00943 0.453958C1.22885 0.270842 1.52644 0.167969 1.83675 0.167969ZM1.83675 13.838C2.14705 13.838 2.44465 13.7351 2.66406 13.552C2.88348 13.3689 3.00675 13.1205 3.00675 12.8615C3.00675 12.6026 2.88348 12.3542 2.66406 12.1711C2.44465 11.988 2.14705 11.8851 1.83675 11.8851C1.52644 11.8851 1.22885 11.988 1.00943 12.1711C0.790016 12.3542 0.666748 12.6026 0.666748 12.8615C0.666748 13.1205 0.790016 13.3689 1.00943 13.552C1.22885 13.7351 1.52644 13.838 1.83675 13.838Z" fill="#C4C4C4"/>
</svg>
